<svg xmlns="http://www.w3.org/2000/svg" width="768" height="176" viewBox="0 0 768 176" shape-rendering="crispEdges"><rect width="768" height="176" fill="#091b29"/><path fill="#167a7d" d="M8 8h752v72h-8v16h8v72H8v-72h8V80H8z"/><path fill="#54d4ba" d="M16 16h736v56H16zm0 104h736v56H16z"/><path fill="#062c37" d="M30 28h708v32H30z"/><path fill="#351536" d="M30 116h708v32H30z"/><path fill="#a0ffe1" d="M30 28h5v32h-5z"/><path fill="#e94b61" d="M30 116h5v32h-5z"/><path fill="#06151a" d="M44 34h10v10h8v8h8v10H60v-8h-8v-8h-8z"/><path fill="#35d353" d="M48 38h6v8h8v8h4v4h-4v-4h-8v-8h-6z"/><path fill="#06151a" d="M44 122h8v8h8v8h8v8H60v-6h-8v-8h-8z"/><path fill="#ff3347" d="M48 126h6v6h6v6h-6v-6h-6z"/></svg>
