<svg xmlns="http://www.w3.org/2000/svg" viewBox="0 0 96 120" shape-rendering="crispEdges">
  <path fill="#143b45" d="M8 4h80v8h4v96h-4v8H8v-8H4V12h4z"/>
  <path fill="#38d0b5" d="M12 8h24v4H12zm48 0h24v4H60zM12 108h24v4H12zm48 0h24v4H60z"/>
  <path fill="#071d2b" d="M20 16h56v5h8v78h-8v5H20v-5h-8V21h8z"/>
  <path fill="#93ffe0" d="M8 4h4v20H8zm76 0h4v20h-4zM8 96h4v20H8zm76 0h4v20h-4z"/>
  <path fill="#1b8e8c" d="M16 16h8v8h-8zm56 0h8v8h-8zM16 96h8v8h-8zm56 0h8v8h-8z"/>
  <path fill="#ffdb74" d="M32 4h32v4H32zM32 112h32v4H32z"/>
  <path fill="#45e8c0" d="M12 38h4v44h-4zm68 0h4v44h-4z"/>
</svg>
